<?xml version="1.0" ?><svg data-name="Layer 1" id="Layer_1" viewBox="0 0 272 272" xmlns="http://www.w3.org/2000/svg"><defs><style>.cls-1{fill:#64b5f6;}.cls-2{fill:#4cb050;}.cls-3{fill:#fff176;}.cls-4{fill:#aed582;}.cls-5{fill:#2196f3;}</style></defs><title/><rect class="cls-1" height="176" transform="translate(12.41 165.85) rotate(-55)" width="16" x="157.5" y="-17"/><rect class="cls-1" height="126.46" transform="translate(374.19 430.57) rotate(-162.86)" width="16" x="211.54" y="123.86"/><path class="cls-2" d="M119.45,41.8a1.5,1.5,0,0,0,2-.53h0A22.05,22.05,0,0,0,113.3,11a22.52,22.52,0,0,0-30.6,8.12h0a1.47,1.47,0,0,0,.56,2Z"/><circle class="cls-3" cx="77.5" cy="73" r="24" transform="translate(-24.47 103.62) rotate(-60)"/><path class="cls-4" d="M120,108.46a4,4,0,0,0,5.43-1.42l0,0A59.79,59.79,0,1,0,22,47l0,0a4,4,0,0,0,1.49,5.44Z"/><circle class="cls-5" cx="238.5" cy="124" r="12"/><circle class="cls-5" cx="198.5" cy="248" r="16"/><path class="cls-2" d="M177.17,248h42.67a14.67,14.67,0,0,1,14.67,14.67V264a0,0,0,0,1,0,0h-72a0,0,0,0,1,0,0v-1.33A14.67,14.67,0,0,1,177.17,248Z"/></svg>